<svg width="1421" height="294" viewBox="0 0 1421 294" fill="none" xmlns="http://www.w3.org/2000/svg">
<path fill-rule="evenodd" clip-rule="evenodd" d="M298.922 88.2888H234.283V292.675H298.922V88.2888ZM298.922 0.43457H234.283V51.8725H298.922V0.43457Z" fill="white"/>
<path d="M298.922 88.2888H234.283V292.675H298.922V88.2888ZM298.922 0.43457H234.283V51.8725H298.922V0.43457Z" fill="white"/>
<path d="M336.251 88.2904V292.677H400.89V176.6C400.435 163.854 402.711 154.295 407.263 147.467C411.815 140.639 420.919 137.452 434.575 137.452C446.41 137.452 453.693 140.184 456.88 146.101C459.611 152.019 460.977 159.302 460.977 169.317V293.132H525.615V176.6C525.16 165.22 527.436 155.66 531.988 148.377C536.54 141.094 545.189 137.452 557.935 136.997C564.763 136.997 570.225 137.908 574.322 139.273C578.419 141.549 581.15 143.825 582.516 147.012C585.247 153.84 586.613 162.488 586.157 173.869V292.221H650.796V152.929C650.341 107.409 626.671 87.38 579.329 88.2904C566.129 88.2904 399.069 88.2904 399.069 88.2904H336.251Z" fill="white"/>
<path d="M336.251 88.2904V292.677H400.89V176.6C400.435 163.854 402.711 154.295 407.263 147.467C411.815 140.639 420.919 137.452 434.575 137.452C446.41 137.452 453.693 140.184 456.88 146.101C459.611 152.019 460.977 159.302 460.977 169.317V293.132H525.615V176.6C525.16 165.22 527.436 155.66 531.988 148.377C536.54 141.094 545.189 137.452 557.935 136.997C564.763 136.997 570.225 137.908 574.322 139.273C578.419 141.549 581.15 143.825 582.516 147.012C585.247 153.84 586.613 162.488 586.157 173.869V292.221H650.796V152.929C650.341 107.409 626.671 87.38 579.329 88.2904C566.129 88.2904 399.069 88.2904 399.069 88.2904H336.251Z" fill="white"/>
<path fill-rule="evenodd" clip-rule="evenodd" d="M1024.06 178.874C1024.06 199.814 1024.06 224.395 1024.06 245.789L1006.31 246.244C987.193 246.7 969.44 250.341 959.881 233.954C955.784 229.857 957.605 148.376 960.336 143.824C968.529 124.705 987.193 128.802 1006.31 128.802C1015.42 128.802 1024.06 128.802 1024.06 128.802C1024.06 129.257 1024.06 156.569 1024.06 178.874ZM1088.25 0.43457C1088.25 0.43457 1046.82 0.43457 1023.61 0.43457C1023.61 25.9259 1023.61 83.2816 1023.61 83.2816C947.59 83.2816 920.278 81.4607 902.07 117.877C894.786 131.988 891.6 149.741 892.055 172.501V219.387C892.51 270.37 917.091 293.13 966.709 292.22C981.275 292.22 1087.79 292.22 1087.79 292.22L1088.25 0.43457Z" fill="white"/>
<path d="M1024.06 178.874C1024.06 199.814 1024.06 224.395 1024.06 245.789L1006.31 246.244C987.193 246.7 969.44 250.341 959.881 233.954C955.784 229.857 957.605 148.376 960.336 143.824C968.529 124.705 987.193 128.802 1006.31 128.802C1015.42 128.802 1024.06 128.802 1024.06 128.802C1024.06 129.257 1024.06 156.569 1024.06 178.874ZM1088.25 0.43457C1088.25 0.43457 1046.82 0.43457 1023.61 0.43457C1023.61 25.9259 1023.61 83.2816 1023.61 83.2816C947.59 83.2816 920.278 81.4607 902.07 117.877C894.786 131.988 891.6 149.741 892.055 172.501V219.387C892.51 270.37 917.091 293.13 966.709 292.22C981.275 292.22 1087.79 292.22 1087.79 292.22L1088.25 0.43457Z" fill="white"/>
<path fill-rule="evenodd" clip-rule="evenodd" d="M1194.76 88.2888H1130.13V292.675H1194.76V88.2888ZM1194.76 0.43457H1130.13V51.8725H1194.76V0.43457Z" fill="white"/>
<path d="M1194.76 88.2888H1130.13V292.675H1194.76V88.2888ZM1194.76 0.43457H1130.13V51.8725H1194.76V0.43457Z" fill="white"/>
<path d="M1411.44 143.367V133.808C1411.44 121.062 1408.71 111.048 1403.25 104.22C1397.33 97.3916 1390.05 92.3843 1381.4 89.6531C1372.75 86.4667 1363.19 84.6459 1353.18 84.1907C1343.16 83.7355 1333.6 83.2803 1324.05 83.2803C1310.39 83.2803 1297.64 83.7355 1285.81 84.1907C1273.97 85.1011 1263.96 87.8323 1254.85 91.9291C1246.21 96.026 1239.38 102.399 1234.37 111.503C1229.36 120.607 1227.09 133.353 1227.09 150.195C1227.09 160.21 1228.45 169.314 1230.73 176.597C1233 184.335 1238.01 190.708 1244.84 195.715C1257.59 205.73 1283.99 210.737 1324.05 210.737C1335.43 210.282 1344.07 211.192 1349.54 213.013C1355 215.289 1357.73 221.207 1357.73 230.766C1358.19 238.049 1355.91 243.057 1351.81 245.333C1347.26 248.064 1338.16 248.974 1323.59 248.974C1315.4 249.429 1307.66 248.064 1301.74 245.788C1295.37 243.512 1291.73 236.684 1291.73 225.759H1227.09C1227.09 242.146 1229.82 254.892 1235.28 263.996C1240.74 273.1 1247.57 279.473 1256.22 283.57C1265.32 287.211 1275.79 289.487 1287.17 290.398C1298.55 291.308 1310.84 291.308 1323.59 291.308C1336.79 291.308 1349.54 290.398 1361.37 288.577C1372.75 287.211 1382.77 284.025 1391.87 279.473C1400.97 274.466 1407.8 267.638 1412.81 258.533C1417.82 248.974 1420.55 237.139 1420.55 223.028C1420.55 208.916 1418.73 197.536 1415.09 188.887C1411.44 180.694 1405.53 174.776 1397.33 170.679C1389.59 166.582 1379.58 163.851 1367.29 162.486C1355 161.575 1340.43 160.665 1323.13 160.665C1314.94 160.21 1308.57 159.299 1304.02 158.844C1299.46 157.934 1295.82 157.023 1294 155.202C1291.73 153.837 1290.36 151.561 1290.36 149.285C1289.45 147.009 1289.45 144.733 1289.45 142.457C1289.45 139.27 1289.9 136.539 1290.36 134.263C1290.82 131.987 1291.73 130.166 1294 129.256C1297.64 127.435 1307.66 126.069 1323.59 126.069C1329.05 126.069 1334.51 126.525 1339.98 127.89C1342.71 128.801 1344.98 130.621 1346.81 132.897C1348.17 135.173 1349.08 138.36 1349.54 142.912H1411.44V143.367Z" fill="white"/>
<path d="M1411.44 143.367V133.808C1411.44 121.062 1408.71 111.048 1403.25 104.22C1397.33 97.3916 1390.05 92.3843 1381.4 89.6531C1372.75 86.4667 1363.19 84.6459 1353.18 84.1907C1343.16 83.7355 1333.6 83.2803 1324.05 83.2803C1310.39 83.2803 1297.64 83.7355 1285.81 84.1907C1273.97 85.1011 1263.96 87.8323 1254.85 91.9291C1246.21 96.026 1239.38 102.399 1234.37 111.503C1229.36 120.607 1227.09 133.353 1227.09 150.195C1227.09 160.21 1228.45 169.314 1230.73 176.597C1233 184.335 1238.01 190.708 1244.84 195.715C1257.59 205.73 1283.99 210.737 1324.05 210.737C1335.43 210.282 1344.07 211.192 1349.54 213.013C1355 215.289 1357.73 221.207 1357.73 230.766C1358.19 238.049 1355.91 243.057 1351.81 245.333C1347.26 248.064 1338.16 248.974 1323.59 248.974C1315.4 249.429 1307.66 248.064 1301.74 245.788C1295.37 243.512 1291.73 236.684 1291.73 225.759H1227.09C1227.09 242.146 1229.82 254.892 1235.28 263.996C1240.74 273.1 1247.57 279.473 1256.22 283.57C1265.32 287.211 1275.79 289.487 1287.17 290.398C1298.55 291.308 1310.84 291.308 1323.59 291.308C1336.79 291.308 1349.54 290.398 1361.37 288.577C1372.75 287.211 1382.77 284.025 1391.87 279.473C1400.97 274.466 1407.8 267.638 1412.81 258.533C1417.82 248.974 1420.55 237.139 1420.55 223.028C1420.55 208.916 1418.73 197.536 1415.09 188.887C1411.44 180.694 1405.53 174.776 1397.33 170.679C1389.59 166.582 1379.58 163.851 1367.29 162.486C1355 161.575 1340.43 160.665 1323.13 160.665C1314.94 160.21 1308.57 159.299 1304.02 158.844C1299.46 157.934 1295.82 157.023 1294 155.202C1291.73 153.837 1290.36 151.561 1290.36 149.285C1289.45 147.009 1289.45 144.733 1289.45 142.457C1289.45 139.27 1289.9 136.539 1290.36 134.263C1290.82 131.987 1291.73 130.166 1294 129.256C1297.64 127.435 1307.66 126.069 1323.59 126.069C1329.05 126.069 1334.51 126.525 1339.98 127.89C1342.71 128.801 1344.98 130.621 1346.81 132.897C1348.17 135.173 1349.08 138.36 1349.54 142.912H1411.44V143.367Z" fill="white"/>
<path fill-rule="evenodd" clip-rule="evenodd" d="M738.649 167.038C739.104 154.292 741.38 145.643 746.388 141.547C750.94 137.45 759.133 135.629 770.513 136.084C781.893 135.629 790.542 137.45 796.005 140.636C801.467 144.278 804.198 152.927 804.198 167.038H738.649ZM805.564 224.394C805.564 233.953 802.378 240.326 796.46 243.057C790.542 246.243 782.349 247.609 771.424 247.154C758.223 247.609 749.119 243.967 745.022 237.139C740.47 230.766 738.194 218.931 738.649 202.544H866.561V191.619C867.016 152.016 860.188 125.159 846.987 110.593C832.876 96.9366 807.84 90.1086 771.879 91.019C733.642 90.5638 708.151 97.847 695.405 112.414C682.659 127.89 676.286 153.837 676.742 191.619C676.286 228.035 682.659 253.527 695.86 269.003C709.061 284.48 734.552 292.219 771.879 291.764C785.99 291.764 798.736 290.853 810.571 289.032C821.951 287.667 831.966 284.48 840.159 279.928C848.808 275.376 855.181 268.093 859.733 258.989C864.285 249.885 866.561 238.05 866.561 223.938L805.564 224.394Z" fill="white"/>
<path d="M738.649 167.038C739.104 154.292 741.38 145.643 746.388 141.547C750.94 137.45 759.133 135.629 770.513 136.084C781.893 135.629 790.542 137.45 796.005 140.636C801.467 144.278 804.198 152.927 804.198 167.038H738.649ZM805.564 224.394C805.564 233.953 802.378 240.326 796.46 243.057C790.542 246.243 782.349 247.609 771.424 247.154C758.223 247.609 749.119 243.967 745.022 237.139C740.47 230.766 738.194 218.931 738.649 202.544H866.561V191.619C867.016 152.016 860.188 125.159 846.987 110.593C832.876 96.9366 807.84 90.1086 771.879 91.019C733.642 90.5638 708.151 97.847 695.405 112.414C682.659 127.89 676.286 153.837 676.742 191.619C676.286 228.035 682.659 253.527 695.86 269.003C709.061 284.48 734.552 292.219 771.879 291.764C785.99 291.764 798.736 290.853 810.571 289.032C821.951 287.667 831.966 284.48 840.159 279.928C848.808 275.376 855.181 268.093 859.733 258.989C864.285 249.885 866.561 238.05 866.561 223.938L805.564 224.394Z" fill="white"/>
<path fill-rule="evenodd" clip-rule="evenodd" d="M132.322 179.329C132.322 200.269 132.322 224.85 132.322 246.244L114.569 246.699C95.4504 247.155 77.6975 250.796 68.1382 234.409C64.0414 230.312 65.8622 148.831 68.5934 144.279C76.7871 125.16 95.4504 129.257 114.569 129.257C123.673 129.257 132.322 129.257 132.322 129.257C132.322 129.257 132.322 156.569 132.322 179.329ZM196.961 0.43457C196.961 0.43457 155.537 0.43457 132.322 0.43457C132.322 25.9259 132.322 83.2816 132.322 83.2816C56.3029 83.2816 28.9907 81.4607 10.7826 117.877C3.49937 131.988 0.312948 149.741 0.768151 172.501V219.387C1.22335 270.37 25.8043 293.13 75.4215 292.22C89.988 292.22 196.506 292.22 196.506 292.22V0.43457H196.961Z" fill="white"/>
<path d="M132.322 179.329C132.322 200.269 132.322 224.85 132.322 246.244L114.569 246.699C95.4504 247.155 77.6975 250.796 68.1382 234.409C64.0414 230.312 65.8622 148.831 68.5934 144.279C76.7871 125.16 95.4504 129.257 114.569 129.257C123.673 129.257 132.322 129.257 132.322 129.257C132.322 129.257 132.322 156.569 132.322 179.329ZM196.961 0.43457C196.961 0.43457 155.537 0.43457 132.322 0.43457C132.322 25.9259 132.322 83.2816 132.322 83.2816C56.3029 83.2816 28.9907 81.4607 10.7826 117.877C3.49937 131.988 0.312948 149.741 0.768151 172.501V219.387C1.22335 270.37 25.8043 293.13 75.4215 292.22C89.988 292.22 196.506 292.22 196.506 292.22V0.43457H196.961Z" fill="white"/>
</svg>
